<svg width="37" height="37" viewBox="0 0 37 37" fill="none" xmlns="http://www.w3.org/2000/svg">
<path opacity="0.1" fill-rule="evenodd" clip-rule="evenodd" d="M18.5 36C28.165 36 36 28.165 36 18.5C36 8.83502 28.165 1 18.5 1C8.83502 1 1 8.83502 1 18.5C1 28.165 8.83502 36 18.5 36Z" stroke="white" stroke-width="1.5"/>
<path d="M23.9999 9.66675H21.4999C20.3948 9.66675 19.335 10.1057 18.5536 10.8871C17.7722 11.6685 17.3333 12.7283 17.3333 13.8334V16.3334H14.8333V19.6667H17.3333V26.3334H20.6666V19.6667H23.1666L23.9999 16.3334H20.6666V13.8334C20.6666 13.6124 20.7544 13.4004 20.9107 13.2442C21.0669 13.0879 21.2789 13.0001 21.4999 13.0001H23.9999V9.66675Z" fill="white"/>
</svg>
