<svg width="37" height="37" viewBox="0 0 37 37" fill="none" xmlns="http://www.w3.org/2000/svg">
<path opacity="0.1" fill-rule="evenodd" clip-rule="evenodd" d="M18.5 36C28.165 36 36 28.165 36 18.5C36 8.83502 28.165 1 18.5 1C8.83502 1 1 8.83502 1 18.5C1 28.165 8.83502 36 18.5 36Z" stroke="white" stroke-width="1.5"/>
<path d="M14 11.5V21.5" stroke="white" stroke-width="2" stroke-linecap="round" stroke-linejoin="round"/>
<path d="M24 16.5C25.3807 16.5 26.5 15.3807 26.5 14C26.5 12.6193 25.3807 11.5 24 11.5C22.6193 11.5 21.5 12.6193 21.5 14C21.5 15.3807 22.6193 16.5 24 16.5Z" stroke="white" stroke-width="2" stroke-linecap="round" stroke-linejoin="round"/>
<path d="M14 26.5C15.3807 26.5 16.5 25.3807 16.5 24C16.5 22.6193 15.3807 21.5 14 21.5C12.6193 21.5 11.5 22.6193 11.5 24C11.5 25.3807 12.6193 26.5 14 26.5Z" stroke="white" stroke-width="2" stroke-linecap="round" stroke-linejoin="round"/>
<path d="M24 16.5C24 18.4891 23.2098 20.3968 21.8033 21.8033C20.3968 23.2098 18.4891 24 16.5 24" stroke="white" stroke-width="2" stroke-linecap="round" stroke-linejoin="round"/>
</svg>
