<svg width="37" height="37" viewBox="0 0 37 37" fill="none" xmlns="http://www.w3.org/2000/svg">
<path opacity="0.1" fill-rule="evenodd" clip-rule="evenodd" d="M18.5 36C28.165 36 36 28.165 36 18.5C36 8.83502 28.165 1 18.5 1C8.83502 1 1 8.83502 1 18.5C1 28.165 8.83502 36 18.5 36Z" stroke="white" stroke-width="1.5"/>
<path d="M22.3333 14.6667C23.6593 14.6667 24.9311 15.1935 25.8688 16.1312C26.8065 17.0689 27.3333 18.3407 27.3333 19.6667V25.5001H23.9999V19.6667C23.9999 19.2247 23.8243 18.8008 23.5118 18.4882C23.1992 18.1757 22.7753 18.0001 22.3333 18.0001C21.8912 18.0001 21.4673 18.1757 21.1547 18.4882C20.8422 18.8008 20.6666 19.2247 20.6666 19.6667V25.5001H17.3333V19.6667C17.3333 18.3407 17.86 17.0689 18.7977 16.1312C19.7354 15.1935 21.0072 14.6667 22.3333 14.6667Z" fill="white"/>
<path d="M14.0001 15.5H10.6667V25.5H14.0001V15.5Z" fill="white"/>
<path d="M12.3334 13.0001C13.2539 13.0001 14.0001 12.2539 14.0001 11.3334C14.0001 10.4129 13.2539 9.66675 12.3334 9.66675C11.4129 9.66675 10.6667 10.4129 10.6667 11.3334C10.6667 12.2539 11.4129 13.0001 12.3334 13.0001Z" fill="white"/>
</svg>
