<svg width="53" height="25" viewBox="0 0 53 25" fill="none" xmlns="http://www.w3.org/2000/svg">
<path d="M12 22.5C17.5228 22.5 22 18.0228 22 12.5C22 6.97715 17.5228 2.5 12 2.5C6.47715 2.5 2 6.97715 2 12.5C2 18.0228 6.47715 22.5 12 22.5Z" stroke="#616161" stroke-width="2" stroke-linecap="round" stroke-linejoin="round"/>
<path d="M2 12.5H22" stroke="#616161" stroke-width="2" stroke-linecap="round" stroke-linejoin="round"/>
<path d="M12 2.5C14.5013 5.23835 15.9228 8.79203 16 12.5C15.9228 16.208 14.5013 19.7616 12 22.5C9.49872 19.7616 8.07725 16.208 8 12.5C8.07725 8.79203 9.49872 5.23835 12 2.5V2.5Z" stroke="#616161" stroke-width="2" stroke-linecap="round" stroke-linejoin="round"/>
<path d="M32.0114 18V6.36364H39.8523V8.39205H34.4716V11.1648H39.4489V13.1932H34.4716V15.9716H39.875V18H32.0114ZM51.7412 6.36364V18H49.6162L44.5537 10.6761H44.4685V18H42.0082V6.36364H44.1673L49.1901 13.6818H49.2923V6.36364H51.7412Z" fill="#616161"/>
</svg>
