<svg width="211" height="53" viewBox="0 0 211 53" fill="none" xmlns="http://www.w3.org/2000/svg">
<path d="M24.328 10.3662V3.74121H3.22803V49.2589H24.328V42.6339C20.0057 42.6339 15.8603 40.934 12.804 37.9083C9.74767 34.8826 8.03064 30.779 8.03064 26.5C8.03064 22.2211 9.74767 18.1173 12.804 15.0917C15.8603 12.066 20.0057 10.3662 24.328 10.3662Z" fill="white"/>
<path d="M24.3279 10.3662V42.6339C28.6502 42.6339 32.7956 40.934 35.8519 37.9083C38.9083 34.8826 40.6253 30.779 40.6253 26.5C40.6253 22.2211 38.9083 18.1173 35.8519 15.0917C32.7956 12.066 28.6502 10.3662 24.3279 10.3662Z" fill="white"/>
<path d="M52.4666 14.4192H57.1904V36.9442H52.4666V14.4192Z" fill="white"/>
<path d="M59.8357 29.2278C59.8357 27.6073 60.3218 26.0232 61.2322 24.6764C62.1427 23.3296 63.4366 22.2806 64.9499 21.6626C66.4633 21.0446 68.1278 20.8853 69.7327 21.2049C71.3376 21.5244 72.8105 22.3085 73.9647 23.4577C75.1189 24.607 75.9026 26.0695 76.2162 27.6601C76.5297 29.2508 76.3594 30.8977 75.7264 32.3923C75.0934 33.8867 74.0266 35.1617 72.6609 36.0552C71.2952 36.9488 69.6922 37.4209 68.0553 37.4117C66.9696 37.4201 65.893 37.2138 64.8888 36.8048C63.8847 36.3959 62.973 35.7927 62.2074 35.0306C61.4418 34.2683 60.8378 33.3623 60.4304 32.3659C60.0232 31.3695 59.8211 30.3026 59.8357 29.2278ZM71.6769 29.2278C71.6583 28.5292 71.432 27.8514 71.0264 27.2795C70.6208 26.7074 70.0539 26.2664 69.3964 26.0117C68.739 25.757 68.0203 25.6998 67.3303 25.8474C66.6401 25.9948 66.0093 26.3404 65.5166 26.8411C65.0239 27.3417 64.6912 27.9749 64.5602 28.6617C64.4292 29.3485 64.5056 30.0582 64.7799 30.7022C65.0542 31.3461 65.5141 31.8959 66.1024 32.2824C66.6905 32.6689 67.3807 32.8752 68.0868 32.8755C68.5675 32.8848 69.0449 32.7958 69.4893 32.6141C69.9336 32.4325 70.3353 32.162 70.6693 31.8197C71.0033 31.4774 71.2623 31.0704 71.4303 30.6245C71.5983 30.1786 71.6715 29.7031 71.6454 29.2278H71.6769Z" fill="white"/>
<path d="M94.9657 21.5117V36.1802C94.9657 41.3555 90.8717 43.5534 86.7304 43.5534C85.2696 43.6721 83.8044 43.3848 82.4998 42.7238C81.1951 42.0629 80.1026 41.0545 79.3454 39.8123L83.3292 37.5364C83.652 38.1808 84.1655 38.7124 84.8013 39.0604C85.4372 39.4085 86.1649 39.5566 86.8879 39.4849C87.3484 39.541 87.8158 39.4958 88.2565 39.3524C88.6974 39.2088 89.1007 38.9708 89.4377 38.655C89.7748 38.3392 90.0371 37.9537 90.2061 37.5258C90.375 37.098 90.4464 36.6385 90.415 36.1802V34.7617C89.8653 35.4215 89.1678 35.9453 88.3779 36.2917C87.5879 36.638 86.7274 36.7973 85.8643 36.757C83.7762 36.757 81.7738 35.9358 80.2973 34.4741C78.8207 33.0125 77.9912 31.03 77.9912 28.9629C77.9912 26.8957 78.8207 24.9133 80.2973 23.4516C81.7738 21.9899 83.7762 21.1687 85.8643 21.1687C86.7274 21.1284 87.5879 21.2877 88.3779 21.634C89.1678 21.9804 89.8653 22.5042 90.415 23.164V21.6052L94.9657 21.5117ZM90.415 28.9161C90.4464 28.1703 90.2517 27.4322 89.856 26.7969C89.4603 26.1615 88.8818 25.6578 88.1945 25.3506C87.5073 25.0433 86.7431 24.9467 85.9999 25.073C85.2569 25.1992 84.5687 25.5426 84.0244 26.0591C83.48 26.5755 83.1042 27.2414 82.9452 27.9711C82.7861 28.7008 82.8511 29.4607 83.1319 30.1535C83.4128 30.8462 83.8965 31.44 84.5209 31.8584C85.1454 32.2768 85.882 32.5008 86.6359 32.5014C87.128 32.5365 87.6219 32.469 88.0858 32.3034C88.5499 32.1377 88.9738 31.8775 89.3298 31.5396C89.686 31.2018 89.9666 30.7937 90.1535 30.3418C90.3404 29.8899 90.4295 29.4042 90.415 28.9161Z" fill="white"/>
<path d="M97.6268 29.228C97.6268 27.6087 98.1121 26.0259 99.0211 24.6797C99.9301 23.3335 101.222 22.2846 102.734 21.6657C104.245 21.0467 105.908 20.8855 107.512 21.2026C109.116 21.5197 110.589 22.3006 111.745 23.4467C112.9 24.5929 113.686 26.0526 114.003 27.641C114.321 29.2296 114.155 30.8756 113.527 32.3706C112.898 33.8659 111.836 35.1428 110.475 36.0403C109.113 36.9377 107.514 37.415 105.878 37.4119C104.79 37.4223 103.711 37.2176 102.704 36.8098C101.697 36.4021 100.783 35.7994 100.014 35.0372C99.2458 34.2749 98.6388 33.3684 98.2288 32.3709C97.8189 31.3734 97.6142 30.3049 97.6268 29.228ZM109.468 29.228C109.449 28.5288 109.223 27.8504 108.816 27.278C108.41 26.7057 107.842 26.2647 107.184 26.0105C106.525 25.7562 105.806 25.7 105.116 25.8488C104.425 25.9975 103.794 26.3448 103.302 26.8469C102.81 27.349 102.479 27.9838 102.35 28.6715C102.22 29.3593 102.299 30.0695 102.576 30.7131C102.852 31.3569 103.315 31.9055 103.905 32.2902C104.495 32.6748 105.187 32.8785 105.894 32.8757C106.374 32.885 106.852 32.796 107.296 32.6143C107.74 32.4327 108.142 32.1622 108.476 31.8199C108.81 31.4776 109.069 31.0706 109.237 30.6247C109.405 30.1788 109.478 29.7033 109.452 29.228H109.468Z" fill="white"/>
<path d="M116.318 17.3809C116.318 16.8322 116.482 16.2957 116.79 15.8394C117.098 15.3831 117.536 15.0274 118.048 14.8174C118.56 14.6074 119.124 14.5525 119.667 14.6595C120.211 14.7666 120.71 15.0308 121.102 15.4189C121.494 15.807 121.761 16.3014 121.869 16.8395C121.978 17.3778 121.922 17.9357 121.71 18.4428C121.498 18.9497 121.139 19.3831 120.678 19.688C120.217 19.9929 119.675 20.1556 119.12 20.1556C118.38 20.1475 117.671 19.8526 117.148 19.334C116.624 18.8153 116.326 18.1143 116.318 17.3809ZM116.774 21.5118H121.498V36.9441H116.774V21.5118Z" fill="white"/>
<path d="M141.717 29.2279C141.769 30.2543 141.617 31.2809 141.267 32.2486C140.918 33.2163 140.379 34.1061 139.681 34.8667C138.983 35.6274 138.14 36.2437 137.2 36.6805C136.26 37.1173 135.243 37.3658 134.206 37.4117C133.326 37.4697 132.444 37.3302 131.626 37.0036C130.808 36.6769 130.075 36.1717 129.482 35.5256V43.1482H124.758V21.5117H129.482V22.9615C130.076 22.3172 130.809 21.8143 131.627 21.4904C132.445 21.1663 133.327 21.0298 134.206 21.0909C135.239 21.1369 136.252 21.3839 137.189 21.8177C138.125 22.2516 138.966 22.8639 139.663 23.6194C140.361 24.375 140.901 25.2592 141.253 26.2216C141.606 27.1838 141.763 28.2053 141.717 29.2279ZM136.993 29.2279C136.974 28.5039 136.74 27.8014 136.32 27.2086C135.9 26.6158 135.312 26.1588 134.631 25.8952C133.949 25.6314 133.205 25.5728 132.49 25.7263C131.775 25.8799 131.122 26.239 130.612 26.7586C130.102 27.2781 129.759 27.935 129.625 28.6471C129.491 29.359 129.572 30.0943 129.858 30.7609C130.144 31.4273 130.623 31.9953 131.234 32.3937C131.845 32.7922 132.561 33.0031 133.292 33.0003C133.793 33.0213 134.293 32.9373 134.759 32.7537C135.225 32.57 135.647 32.291 135.996 31.9348C136.346 31.5786 136.615 31.1532 136.787 30.6868C136.958 30.2203 137.029 29.7232 136.993 29.2279Z" fill="white"/>
<path d="M156.093 32.3143C156.093 35.8684 152.944 37.3805 149.605 37.3805C148.244 37.5018 146.877 37.216 145.681 36.5602C144.485 35.9044 143.516 34.9087 142.897 33.7017L146.96 31.4258C147.121 31.982 147.47 32.4666 147.949 32.7986C148.427 33.1307 149.007 33.2898 149.59 33.2496C150.708 33.2496 151.274 32.9067 151.274 32.2831C151.274 30.584 143.606 31.4881 143.606 26.1414C143.606 22.7743 146.472 21.0908 149.716 21.0908C150.949 21.0361 152.174 21.3131 153.26 21.8922C154.347 22.4713 155.255 23.331 155.888 24.3799L151.826 26.4999C151.646 26.0977 151.353 25.7557 150.981 25.515C150.61 25.2743 150.175 25.1454 149.731 25.1437C148.913 25.1437 148.424 25.4555 148.424 26.0011C148.424 27.7781 156.093 26.609 156.093 32.3143Z" fill="white"/>
<path d="M173.209 21.5117V36.9441H168.485V35.4944C167.948 36.1361 167.266 36.6438 166.496 36.977C165.725 37.3101 164.885 37.459 164.045 37.4117C160.895 37.4117 158.203 35.1826 158.203 31.0205V21.5117H162.927V30.3191C162.889 30.6873 162.933 31.059 163.056 31.4088C163.178 31.7585 163.375 32.0777 163.634 32.3446C163.893 32.6113 164.208 32.8193 164.556 32.9541C164.904 33.0888 165.277 33.1471 165.651 33.125C167.351 33.125 168.548 32.1273 168.548 30.0073V21.5117H173.209Z" fill="white"/>
<path d="M199.978 27.4664V36.9441H195.254V27.8717C195.254 26.3129 194.514 25.3464 193.018 25.3464C191.522 25.3464 190.577 26.422 190.577 28.2458V36.9441H185.853V27.8717C185.853 26.3129 185.113 25.3464 183.617 25.3464C182.121 25.3464 181.177 26.422 181.177 28.2458V36.9441H176.453V21.5117H181.177V22.9302C181.666 22.3036 182.304 21.8073 183.036 21.4861C183.767 21.165 184.568 21.0291 185.365 21.0908C186.163 21.0495 186.96 21.2147 187.675 21.57C188.39 21.9253 188.999 22.4585 189.443 23.1173C189.963 22.4289 190.649 21.8821 191.44 21.5278C192.229 21.1733 193.098 21.023 193.962 21.0908C197.647 21.0908 199.978 23.6161 199.978 27.4664Z" fill="white"/>
<path d="M203.946 21.4181C205.859 21.4181 207.41 19.8827 207.41 17.9887C207.41 16.0948 205.859 14.5593 203.946 14.5593C202.032 14.5593 200.481 16.0948 200.481 17.9887C200.481 19.8827 202.032 21.4181 203.946 21.4181Z" fill="white"/>
</svg>
